<svg width="50" height="43" viewBox="0 0 50 43" fill="none" xmlns="http://www.w3.org/2000/svg">
<path d="M8.33398 7.16675H13.0826C13.8054 7.16675 14.1669 7.16675 14.4336 7.36702C14.7004 7.56728 14.8013 7.91434 15.0031 8.60846L15.8291 11.45C16.2327 12.8382 16.4344 13.5323 16.968 13.9329C17.5016 14.3334 18.2244 14.3334 19.6701 14.3334H20.834" stroke="white" stroke-width="2" stroke-linecap="round"/>
<path d="M37.5 30.4583H15.4202C14.0953 30.4583 13.4329 30.4583 13.135 30.0233C12.8372 29.5884 13.0766 28.9707 13.5553 27.7355L13.5933 27.6377C14.0725 26.4013 14.3121 25.7831 14.823 25.4332C15.3339 25.0833 15.9969 25.0833 17.3229 25.0833H29.1667" stroke="white" stroke-width="2" stroke-linecap="round" stroke-linejoin="round"/>
<path d="M34.2667 25.0833H18.3169C17.3591 25.0833 16.5357 24.4041 16.3535 23.4638L14.93 16.1186C14.7506 15.1929 15.4597 14.3333 16.4026 14.3333H39.9292C40.7003 14.3333 41.1813 15.1692 40.7937 15.8359L35.9957 24.0885C35.6376 24.7043 34.979 25.0833 34.2667 25.0833Z" stroke="white" stroke-width="2" stroke-linecap="round"/>
<ellipse cx="35.4173" cy="35.8334" rx="2.08333" ry="1.79167" fill="white"/>
<ellipse cx="18.7493" cy="35.8334" rx="2.08333" ry="1.79167" fill="white"/>
</svg>
