<svg width="40" height="37" viewBox="0 0 40 37" fill="none" xmlns="http://www.w3.org/2000/svg">
<path d="M30.0003 26.3625V24.6667H14.3337L15.3337 22.9708L30.667 21.5833L33.3337 12.3333H12.8337L11.667 7.70834H6.66699V9.25H10.3337L13.8337 22.2L11.667 26.2083V28.5208C11.667 29.7542 12.8337 30.8333 14.167 30.8333C15.5003 30.8333 16.667 29.7542 16.667 28.5208C16.667 27.2875 15.5003 26.2083 14.167 26.2083H26.667V28.5208C26.667 29.7542 27.8337 30.8333 29.167 30.8333C30.5003 30.8333 31.667 29.7542 31.667 28.5208C31.667 27.4417 31.0003 26.6708 30.0003 26.3625V26.3625ZM13.3337 13.875H31.167L29.3337 20.0417L15.3337 21.4292L13.3337 13.875V13.875Z" fill="white"/>
</svg>
