<svg width="24" height="21" viewBox="0 0 24 21" fill="none" xmlns="http://www.w3.org/2000/svg">
<path d="M18.8387 20.7229C17.73 20.7229 16.5623 20.4626 15.3555 19.9614C14.178 19.4699 12.9908 18.7952 11.833 17.9759C10.685 17.147 9.57623 16.2217 8.52635 15.2096C7.48629 14.1783 6.54434 13.0892 5.71033 11.9711C4.8665 10.8145 4.18948 9.65783 3.70869 8.53976C3.19847 7.34458 2.94336 6.18795 2.94336 5.09879C2.94336 4.34699 3.08073 3.63373 3.34565 2.96867C3.62038 2.28434 4.06192 1.64819 4.66045 1.0988C5.41597 0.366265 6.27942 0 7.20174 0C7.58441 0 7.97688 0.086747 8.31049 0.240964C8.69316 0.414458 9.01695 0.674699 9.25244 1.02169L11.5288 4.17349C11.7349 4.45301 11.8918 4.72289 11.9998 4.99277C12.1273 5.28193 12.196 5.57108 12.196 5.8506C12.196 6.21687 12.0881 6.57349 11.882 6.91084C11.7349 7.17108 11.5092 7.4506 11.2246 7.73012L10.5574 8.41446C10.5672 8.44337 10.577 8.46265 10.5869 8.48193C10.7046 8.68434 10.9401 9.03132 11.3914 9.55181C11.8722 10.0916 12.3236 10.5831 12.7749 11.0361C13.3538 11.5952 13.8346 12.0386 14.286 12.4048C14.8452 12.8675 15.2083 13.0988 15.4241 13.2048L15.4045 13.253L16.1208 12.559C16.425 12.2602 16.7193 12.0386 17.0039 11.894C17.5435 11.5663 18.2304 11.5084 18.9172 11.788C19.1723 11.894 19.447 12.0386 19.7414 12.241L22.999 14.5157C23.362 14.7566 23.6269 15.0651 23.7839 15.4313C23.9311 15.7976 23.9998 16.1349 23.9998 16.4723C23.9998 16.9349 23.8918 17.3976 23.6858 17.8313C23.4797 18.2651 23.2246 18.641 22.9008 18.988C22.3416 19.5952 21.7332 20.0289 21.0268 20.3084C20.3497 20.5783 19.6138 20.7229 18.8387 20.7229ZM7.20174 1.44578C6.66208 1.44578 6.16168 1.67711 5.68089 2.13976C5.22954 2.55422 4.91556 3.00723 4.71932 3.4988C4.51327 4 4.41515 4.53012 4.41515 5.09879C4.41515 5.99518 4.63101 6.96867 5.06274 7.97108C5.50428 8.99277 6.12243 10.053 6.90738 11.1133C7.69234 12.1735 8.58522 13.2048 9.56642 14.1783C10.5476 15.1325 11.6073 16.0193 12.6964 16.8C13.7561 17.5614 14.8452 18.1783 15.9246 18.6217C17.6024 19.3253 19.1723 19.4892 20.4675 18.959C20.9679 18.7566 21.4094 18.4482 21.8117 18.0048C22.0374 17.7639 22.214 17.5036 22.3612 17.1952C22.4789 16.9542 22.5378 16.7036 22.5378 16.453C22.5378 16.2988 22.5084 16.1446 22.4299 15.9711C22.4004 15.9133 22.3416 15.8072 22.1551 15.6819L18.8976 13.4072C18.7013 13.2723 18.5247 13.1759 18.3579 13.1084C18.1421 13.0217 18.0537 12.9349 17.7201 13.1373C17.5239 13.2337 17.3473 13.3783 17.151 13.5711L16.4053 14.294C16.0227 14.6602 15.434 14.747 14.9826 14.5831L14.7177 14.4675C14.3154 14.2554 13.8444 13.9277 13.3244 13.494C12.8534 13.0988 12.3432 12.6361 11.725 12.0386C11.2443 11.5566 10.7635 11.0458 10.2631 10.4771C9.8019 9.94699 9.4683 9.49398 9.26225 9.11807L9.1445 8.82892C9.08563 8.60723 9.06601 8.48193 9.06601 8.34699C9.06601 8 9.19356 7.69157 9.43886 7.4506L10.1748 6.69879C10.371 6.50602 10.5182 6.32289 10.6163 6.15904C10.6948 6.03373 10.7242 5.92771 10.7242 5.83133C10.7242 5.75422 10.6948 5.63855 10.6457 5.52289C10.577 5.36867 10.4691 5.19518 10.3317 5.01205L8.05538 1.8506C7.95726 1.71566 7.83952 1.61928 7.69234 1.55181C7.53535 1.48434 7.36854 1.44578 7.20174 1.44578ZM15.4045 13.2627L15.2475 13.9181L15.5125 13.2434C15.4634 13.2337 15.4241 13.2434 15.4045 13.2627Z" fill="black"/>
</svg>
