<svg width="24" height="24" viewBox="0 0 24 24" fill="none" xmlns="http://www.w3.org/2000/svg">
<path opacity="0.4" d="M20.4938 10.7C19.4538 6.07 15.4138 4 11.8738 4C11.8738 4 11.8738 4 11.8638 4C8.33377 4 4.30377 6.07 3.25377 10.69C2.07377 15.85 5.23377 20.22 8.09377 22.98C9.15377 24 10.5138 24.51 11.8738 24.51C13.2338 24.51 14.5938 24 15.6438 22.98C18.5038 20.22 21.6638 15.86 20.4938 10.7Z" fill="black"/>
<path d="M10.7495 13.7499C10.5595 13.7499 10.3695 13.6799 10.2195 13.5299L8.71945 12.0299C8.42945 11.7399 8.42945 11.2599 8.71945 10.9699C9.00945 10.6799 9.48945 10.6799 9.77945 10.9699L10.7495 11.9399L14.2195 8.46994C14.5095 8.17994 14.9895 8.17994 15.2795 8.46994C15.5695 8.75994 15.5695 9.23994 15.2795 9.52994L11.2795 13.5299C11.1295 13.6799 10.9395 13.7499 10.7495 13.7499Z" fill="black"/>
</svg>
