<svg width="50" height="43" viewBox="0 0 50 43" fill="none" xmlns="http://www.w3.org/2000/svg">
<path d="M8.33301 7.16663H13.0816C13.8045 7.16663 14.1659 7.16663 14.4327 7.36689C14.6994 7.56716 14.8003 7.91422 15.0021 8.60834L15.8281 11.4499C16.2317 12.8381 16.4335 13.5322 16.967 13.9328C17.5006 14.3333 18.2234 14.3333 19.6691 14.3333H20.833" stroke="#222222" stroke-width="2" stroke-linecap="round"/>
<path d="M37.5 30.4583H15.4202C14.0953 30.4583 13.4329 30.4583 13.135 30.0233C12.8372 29.5884 13.0766 28.9707 13.5553 27.7355L13.5933 27.6377C14.0725 26.4013 14.3121 25.7831 14.823 25.4332C15.3339 25.0833 15.9969 25.0833 17.3229 25.0833H29.1667" stroke="#222222" stroke-width="2" stroke-linecap="round" stroke-linejoin="round"/>
<path d="M34.2657 25.0833H18.316C17.3581 25.0833 16.5347 24.4041 16.3525 23.4638L14.929 16.1186C14.7496 15.1929 15.4587 14.3333 16.4016 14.3333H39.9282C40.6994 14.3333 41.1803 15.1692 40.7927 15.8359L35.9947 24.0885C35.6366 24.7043 34.978 25.0833 34.2657 25.0833Z" stroke="#222222" stroke-width="2" stroke-linecap="round"/>
<ellipse cx="35.4163" cy="35.8334" rx="2.08333" ry="1.79167" fill="#222222"/>
<ellipse cx="18.7503" cy="35.8334" rx="2.08333" ry="1.79167" fill="#222222"/>
</svg>
