<svg width="24" height="24" viewBox="0 0 24 24" fill="none" xmlns="http://www.w3.org/2000/svg">
<path d="M9.34185 9.4527V8.51835C8.9793 8.47559 8.6107 8.44886 8.23001 8.44886C3.69203 8.4436 0 11.706 0 15.7214C0 18.1829 1.3898 20.3615 3.5168 21.6804C2.14512 20.3829 1.3052 18.6368 1.3052 16.7252C1.3052 12.7686 4.8945 9.54349 9.34185 9.4527Z" fill="#FF165D"/>
<path d="M9.53959 20.0448C11.5639 20.0448 13.2195 18.6191 13.2921 16.8464L13.2981 1.00384H16.5732C16.5067 0.678126 16.4705 0.341736 16.4705 0H11.9989L11.9929 15.8426C11.9204 17.6153 10.2647 19.0409 8.24045 19.0409C7.61202 19.0409 7.01985 18.9021 6.49414 18.6565C7.17091 19.4948 8.28275 20.0448 9.53959 20.0448Z" fill="#FF165D"/>
<path d="M22.6965 6.38211V5.50113C21.4458 5.50113 20.2855 5.1754 19.3066 4.60938C20.1767 5.49044 21.3551 6.13122 22.6965 6.38211Z" fill="#FF165D"/>
<path d="M19.3072 4.60699C18.3524 3.64056 17.7784 2.38042 17.7784 1.00281H16.582C16.8901 2.50857 17.9054 3.80076 19.3072 4.60699Z" fill="#3EC1D3"/>
<path d="M8.23505 12.3938C6.16244 12.3938 4.47656 13.8835 4.47656 15.715C4.47656 16.9912 5.29835 18.1018 6.49478 18.6571C6.04764 18.1125 5.78176 17.445 5.78176 16.7188C5.78176 14.8874 7.46764 13.3976 9.54029 13.3976C9.927 13.3976 10.3016 13.4563 10.6521 13.5524V9.51578C10.2895 9.47302 9.92095 9.44629 9.54029 9.44629C9.47379 9.44629 9.41336 9.45163 9.34689 9.45163V12.5486C8.99038 12.4525 8.62178 12.3938 8.23505 12.3938Z" fill="#3EC1D3"/>
<path d="M22.6949 6.37939V9.44964C20.3745 9.44964 18.2233 8.79291 16.4709 7.68224V15.7183C16.4709 19.7284 12.779 22.9962 8.23489 22.9962C6.48253 22.9962 4.85104 22.5049 3.51562 21.6773C5.02023 23.103 7.16535 24.0001 9.54013 24.0001C14.0781 24.0001 17.7762 20.7375 17.7762 16.7222V8.68609C19.5285 9.79675 21.6796 10.4535 24 10.4535V6.50225C23.5468 6.50225 23.1118 6.45949 22.6949 6.37939Z" fill="#3EC1D3"/>
<path d="M16.4735 15.7187V7.68258C18.2259 8.79325 20.3771 9.44997 22.6975 9.44997V6.37973C21.356 6.12884 20.1777 5.48806 19.3076 4.60699C17.9056 3.80076 16.8966 2.50857 16.5762 1.00281H13.3012L13.2951 16.8453C13.2227 18.618 11.5669 20.0437 9.54273 20.0437C8.28584 20.0437 7.18004 19.4937 6.49119 18.6608C5.29475 18.1001 4.47296 16.9949 4.47296 15.7187C4.47296 13.8872 6.15884 12.3974 8.23145 12.3974C8.61818 12.3974 8.99282 12.4562 9.34329 12.5523V9.45532C4.89594 9.54076 1.30664 12.7659 1.30664 16.7225C1.30664 18.6341 2.14656 20.3748 3.51823 21.6777C4.85364 22.5053 6.48514 22.9965 8.2375 22.9965C12.7755 22.9965 16.4735 19.7287 16.4735 15.7187Z" fill="black"/>
</svg>
